<?xml version="1.0" encoding="utf-8"?>
<!-- Generator: Adobe Illustrator 19.0.0, SVG Export Plug-In . SVG Version: 6.00 Build 0)  -->
<svg version="1.1" id="Capa_1" xmlns="http://www.w3.org/2000/svg" xmlns:xlink="http://www.w3.org/1999/xlink" x="0px" y="0px"
	 viewBox="-326.2 406.6 198.4 29.6" style="enable-background:new -326.2 406.6 198.4 29.6;" xml:space="preserve">
<style type="text/css">
	.st0{fill:#009540;}
	.st1{fill-rule:evenodd;clip-rule:evenodd;fill:#009540;}
</style>
<g id="XMLID_347_">
	<g id="XMLID_354_">
		<path id="XMLID_406_" class="st0" d="M-321.6,416.7l4.1,0.4l-8.7-2.7c4.7-2,7.6-3,12.2,1.6c-0.1-0.4-0.1-0.9-0.1-1.3l-4.6-4.7
			l0.3-0.3l4.3,4.3c0.1-0.5,0.2-0.9,0.4-1.3l-2.9-5.9l0.4-0.2l2.8,5.6c1.1-1.9,3.1-3.2,5.6-3.1l-3.8,6.7l0.1,0.3
			c5.9-3.1,15.9-2.4,20.4,2.1l-18.6-0.1v15.2c-4-5.2-7-9.7-3.5-14.2l-11.9,7.3c0.3-3.2,2.2-6.2,5.8-7.5l-1.2,0.1l0-0.4l5.8-0.5
			l-0.6-0.2l-6.2-0.6L-321.6,416.7z"/>
		<path id="XMLID_378_" class="st0" d="M-264.3,418.3v-7.8h1v6.9h3.8v0.9H-264.3L-264.3,418.3z M-259.1,418.3l3-7.8h1.1l3.2,7.8
			h-1.2l-0.9-2.4h-3.3l-0.9,2.4H-259.1L-259.1,418.3z M-256.8,415.1h2.6l-0.8-2.2c-0.3-0.7-0.4-1.2-0.6-1.6c-0.1,0.5-0.2,1-0.4,1.5
			L-256.8,415.1L-256.8,415.1z M-251,418.3v-7.8h2.9c0.6,0,1.1,0.1,1.4,0.2c0.4,0.2,0.6,0.4,0.8,0.7c0.2,0.3,0.3,0.7,0.3,1
			c0,0.3-0.1,0.6-0.3,0.9c-0.2,0.3-0.5,0.5-0.8,0.7c0.5,0.1,0.8,0.4,1.1,0.7c0.3,0.3,0.4,0.7,0.4,1.2c0,0.4-0.1,0.7-0.2,1
			c-0.1,0.3-0.3,0.6-0.6,0.7c-0.2,0.2-0.5,0.3-0.9,0.4c-0.3,0.1-0.8,0.1-1.3,0.1H-251L-251,418.3z M-249.9,413.8h1.7
			c0.5,0,0.8,0,1-0.1c0.3-0.1,0.5-0.2,0.6-0.4c0.1-0.2,0.2-0.4,0.2-0.7c0-0.3-0.1-0.5-0.2-0.7c-0.1-0.2-0.3-0.3-0.5-0.4
			c-0.2-0.1-0.6-0.1-1.2-0.1h-1.5V413.8L-249.9,413.8z M-249.9,417.4h1.9c0.3,0,0.6,0,0.7,0c0.2,0,0.4-0.1,0.6-0.2
			c0.2-0.1,0.3-0.2,0.4-0.4c0.1-0.2,0.1-0.4,0.1-0.7c0-0.3-0.1-0.5-0.2-0.8c-0.1-0.2-0.3-0.4-0.6-0.4c-0.3-0.1-0.6-0.1-1.1-0.1h-1.8
			V417.4L-249.9,417.4z M-244,414.5c0-1.3,0.3-2.3,1-3c0.7-0.7,1.6-1.1,2.7-1.1c0.7,0,1.4,0.2,2,0.5c0.6,0.3,1,0.8,1.3,1.4
			c0.3,0.6,0.5,1.3,0.5,2.1c0,0.8-0.2,1.5-0.5,2.1c-0.3,0.6-0.8,1.1-1.4,1.4c-0.6,0.3-1.2,0.5-1.9,0.5c-0.7,0-1.4-0.2-2-0.5
			c-0.6-0.3-1-0.8-1.3-1.4C-243.8,415.9-244,415.2-244,414.5L-244,414.5z M-242.9,414.5c0,0.9,0.2,1.7,0.8,2.2
			c0.5,0.5,1.1,0.8,1.9,0.8c0.8,0,1.4-0.3,1.9-0.8c0.5-0.6,0.8-1.3,0.8-2.3c0-0.6-0.1-1.2-0.3-1.7c-0.2-0.5-0.5-0.8-0.9-1.1
			c-0.4-0.3-0.9-0.4-1.4-0.4c-0.7,0-1.4,0.2-1.9,0.8C-242.7,412.5-242.9,413.4-242.9,414.5L-242.9,414.5z M-235.2,418.3v-7.8h3.5
			c0.7,0,1.2,0.1,1.6,0.2c0.4,0.1,0.7,0.4,0.9,0.7c0.2,0.4,0.3,0.7,0.3,1.2c0,0.6-0.2,1-0.5,1.4c-0.4,0.4-0.9,0.6-1.7,0.7
			c0.3,0.1,0.5,0.3,0.6,0.4c0.3,0.3,0.6,0.6,0.9,1l1.4,2.1h-1.3l-1-1.6c-0.3-0.5-0.5-0.8-0.7-1.1c-0.2-0.2-0.4-0.4-0.5-0.5
			c-0.2-0.1-0.3-0.2-0.5-0.2c-0.1,0-0.3,0-0.6,0h-1.2v3.5H-235.2L-235.2,418.3z M-234.1,414h2.2c0.5,0,0.8-0.1,1.1-0.1
			c0.3-0.1,0.5-0.2,0.6-0.5c0.1-0.2,0.2-0.4,0.2-0.7c0-0.4-0.1-0.7-0.4-0.9c-0.3-0.2-0.7-0.4-1.3-0.4h-2.5V414L-234.1,414z
			 M-228.2,418.3l3-7.8h1.1l3.2,7.8h-1.2l-0.9-2.4h-3.3l-0.9,2.4H-228.2L-228.2,418.3z M-225.9,415.1h2.7l-0.8-2.2
			c-0.2-0.7-0.4-1.2-0.6-1.6c-0.1,0.5-0.2,1-0.4,1.5L-225.9,415.1L-225.9,415.1z M-218.9,418.3h1v-6.9h2.6v-0.9h-6.2v0.9h2.6V418.3
			L-218.9,418.3z M-214.7,414.5c0-1.3,0.3-2.3,1-3c0.7-0.7,1.6-1.1,2.7-1.1c0.7,0,1.4,0.2,1.9,0.5c0.6,0.3,1,0.8,1.3,1.4
			c0.3,0.6,0.5,1.3,0.5,2.1c0,0.8-0.2,1.5-0.5,2.1c-0.3,0.6-0.8,1.1-1.4,1.4c-0.6,0.3-1.2,0.5-1.9,0.5c-0.7,0-1.4-0.2-2-0.5
			c-0.6-0.3-1-0.8-1.3-1.4C-214.6,415.9-214.7,415.2-214.7,414.5L-214.7,414.5z M-213.6,414.5c0,0.9,0.2,1.7,0.8,2.2
			c0.5,0.5,1.1,0.8,1.9,0.8c0.8,0,1.4-0.3,1.9-0.8c0.5-0.6,0.7-1.3,0.7-2.3c0-0.6-0.1-1.2-0.3-1.7c-0.2-0.5-0.5-0.8-0.9-1.1
			c-0.4-0.3-0.9-0.4-1.4-0.4c-0.7,0-1.4,0.2-1.9,0.8C-213.4,412.5-213.6,413.4-213.6,414.5L-213.6,414.5z M-205.9,418.3v-7.8h3.5
			c0.7,0,1.2,0.1,1.6,0.2c0.4,0.1,0.7,0.4,0.9,0.7c0.2,0.4,0.3,0.7,0.3,1.2c0,0.6-0.2,1-0.5,1.4c-0.4,0.4-0.9,0.6-1.7,0.7
			c0.3,0.1,0.5,0.3,0.6,0.4c0.3,0.3,0.6,0.6,0.9,1l1.4,2.1h-1.3l-1-1.6c-0.3-0.5-0.5-0.8-0.7-1.1c-0.2-0.2-0.4-0.4-0.5-0.5
			c-0.2-0.1-0.3-0.2-0.5-0.2c-0.1,0-0.3,0-0.6,0h-1.2v3.5H-205.9L-205.9,418.3z M-204.9,414h2.2c0.5,0,0.8-0.1,1.1-0.1
			c0.3-0.1,0.5-0.2,0.6-0.5c0.1-0.2,0.2-0.4,0.2-0.7c0-0.4-0.1-0.7-0.4-0.9c-0.3-0.2-0.7-0.4-1.3-0.4h-2.5V414L-204.9,414z
			 M-197.9,418.3v-7.8h1v7.8H-197.9L-197.9,418.3z M-195.3,414.5c0-1.3,0.4-2.3,1-3c0.7-0.7,1.6-1.1,2.7-1.1c0.7,0,1.4,0.2,2,0.5
			c0.6,0.3,1,0.8,1.3,1.4c0.3,0.6,0.5,1.3,0.5,2.1c0,0.8-0.2,1.5-0.5,2.1c-0.3,0.6-0.8,1.1-1.3,1.4c-0.6,0.3-1.2,0.5-1.9,0.5
			c-0.7,0-1.4-0.2-2-0.5c-0.6-0.3-1-0.8-1.3-1.4C-195.2,415.9-195.3,415.2-195.3,414.5L-195.3,414.5z M-194.3,414.5
			c0,0.9,0.2,1.7,0.8,2.2c0.5,0.5,1.1,0.8,1.9,0.8c0.8,0,1.4-0.3,1.9-0.8c0.5-0.6,0.8-1.3,0.8-2.3c0-0.6-0.1-1.2-0.3-1.7
			c-0.2-0.5-0.5-0.8-0.9-1.1c-0.4-0.3-0.9-0.4-1.4-0.4c-0.7,0-1.4,0.2-1.9,0.8C-194,412.5-194.3,413.4-194.3,414.5L-194.3,414.5z
			 M-186.9,415.8l1-0.1c0,0.4,0.2,0.7,0.3,1c0.2,0.3,0.4,0.5,0.8,0.6c0.3,0.2,0.8,0.2,1.2,0.2c0.4,0,0.7-0.1,1-0.2
			c0.3-0.1,0.5-0.3,0.7-0.5c0.1-0.2,0.2-0.4,0.2-0.7s-0.1-0.4-0.2-0.6c-0.2-0.2-0.4-0.3-0.7-0.5c-0.2-0.1-0.7-0.2-1.4-0.4
			c-0.7-0.2-1.2-0.3-1.5-0.5c-0.4-0.2-0.7-0.4-0.8-0.7c-0.2-0.3-0.3-0.6-0.3-1c0-0.4,0.1-0.8,0.3-1.1c0.2-0.3,0.5-0.6,1-0.8
			c0.4-0.2,0.9-0.3,1.4-0.3c0.6,0,1.1,0.1,1.5,0.3c0.4,0.2,0.8,0.5,1,0.8c0.2,0.4,0.4,0.8,0.4,1.2l-1,0.1c-0.1-0.5-0.2-0.9-0.5-1.1
			c-0.3-0.3-0.8-0.4-1.4-0.4c-0.6,0-1.1,0.1-1.4,0.3c-0.3,0.2-0.4,0.5-0.4,0.8c0,0.3,0.1,0.5,0.3,0.7c0.2,0.2,0.7,0.4,1.6,0.6
			c0.8,0.2,1.4,0.4,1.7,0.5c0.5,0.2,0.8,0.5,1,0.8c0.2,0.3,0.3,0.7,0.3,1.1c0,0.4-0.1,0.8-0.4,1.2c-0.2,0.4-0.6,0.7-1,0.9
			c-0.4,0.2-0.9,0.3-1.5,0.3c-0.7,0-1.3-0.1-1.8-0.3c-0.5-0.2-0.9-0.5-1.1-0.9C-186.7,416.8-186.9,416.3-186.9,415.8z"/>
		<path id="XMLID_355_" class="st1" d="M-205,434.2c0,1.1,0.8,1.6,1.8,1.6h5.5c1.1,0,1.8-0.6,1.8-1.5c0-1-0.7-1.5-1.8-1.5h-3.7v-2.7
			h3.3c1.1,0,1.8-0.6,1.8-1.5c0-0.9-0.7-1.5-1.8-1.5h-3.3v-2.6h3.6c1.1,0,1.8-0.6,1.8-1.5c0-0.9-0.7-1.5-1.8-1.5h-5.3
			c-0.9,0-1.8,0.6-1.8,1.6V434.2L-205,434.2z M-166.2,432.7c-0.1,0.2-0.1,0.3-0.2,0.5c-0.2-0.4-0.6-0.8-1.4-0.8
			c-0.9,0-1.2,0.7-3.4,0.7c-2.4,0-3.7-2-3.7-4.2c0-2.2,1.1-4.3,4-4.3c1.4,0,2.2,0.7,3,0.7c0.9,0,1.5-0.8,1.5-1.6
			c0-1.7-2.5-2.3-4.6-2.3c-4.6,0-7.6,3.1-7.6,7.5c0,4.1,2.7,7.5,7.6,7.5c1.5,0,3.5-0.4,4.4-1.3c0.1,0.7,0.8,1.1,1.7,1.1
			c1.1,0,1.5-0.7,1.8-1.6l0.4-1.3h5.8l0.4,1.3c0.3,0.9,0.7,1.6,1.8,1.6c1,0,1.7-0.5,1.7-1.3c0-0.5-0.1-0.9-0.5-2l-3.4-8.5
			c-0.6-1.6-1.2-3-3-3c-1.8,0-2.3,1.4-2.9,3L-166.2,432.7L-166.2,432.7z M-158.1,430.1h-3.7l1.9-5.3h0L-158.1,430.1L-158.1,430.1z
			 M-195.4,434.3c0,1.1,0.7,1.7,1.7,1.7c1,0,1.8-0.6,1.8-1.7v-4.1h0l4.3,5c0.4,0.5,0.8,0.8,1.7,0.8c1.4,0,1.8-1,1.8-1.5
			c0-0.5-0.3-0.9-0.7-1.4l-3-3.1c2.2-0.4,3.6-1.9,3.6-4c0-2.7-2-4.4-5.1-4.4h-4.2c-0.9,0-1.7,0.6-1.7,1.6V434.3L-195.4,434.3z
			 M-191.8,424.6h2.3c1,0,1.8,0.6,1.8,1.6c0,0.9-0.7,1.6-1.8,1.6h-2.3V424.6L-191.8,424.6z M-236.8,432.7c-0.2,0.4-0.3,0.7-0.4,1
			c-0.1-0.7-0.3-1.8-0.5-2.8l-1.4-7.4c-0.3-1.7-1.4-2.1-2.3-2.1c-1.7,0-2.1,1-3,3.5l-1.7,4.9h0l-1.7-4.9c-0.9-2.6-1.3-3.5-3-3.5
			c-0.9,0-2,0.4-2.3,2.1l-1.4,7.4c-0.3,1.5-0.6,3.1-0.6,3.6c0,0.7,0.6,1.5,1.6,1.5c1.6,0,1.9-1,2-2.2l1-6.4h0l2.4,7
			c0.3,1.1,0.9,1.5,1.9,1.5c1.1,0,1.6-0.4,1.9-1.5l2.4-7h0l1,6.4c0.2,1.1,0.5,2.2,2,2.2c0.7,0,1.2-0.4,1.5-0.9
			c0.2,0.6,0.8,0.9,1.6,0.9c1.1,0,1.5-0.7,1.8-1.6l0.4-1.3h5.8l0.4,1.3c0.3,0.9,0.7,1.6,1.8,1.6c0.9,0,1.6-0.4,1.7-1.1
			c0.2,0.6,0.7,1.1,1.6,1.1c1.6,0,1.9-1,2-2.2l1-6.4h0l2.4,7c0.3,1.1,0.9,1.5,1.9,1.5c1.1,0,1.6-0.4,1.9-1.5l2.4-7h0l1,6.4
			c0.2,1.1,0.5,2.2,2,2.2c1,0,1.6-0.8,1.6-1.5c0-0.5-0.3-2.1-0.6-3.6l-1.4-7.4c-0.3-1.7-1.4-2.1-2.3-2.1c-1.8,0-2.1,1-3,3.5
			l-1.7,4.9h0l-1.7-4.9c-0.9-2.6-1.3-3.5-3-3.5c-0.9,0-2,0.4-2.3,2.1l-1.4,7.4c-0.2,1.2-0.5,2.5-0.6,3.2c-0.1-0.3-0.2-0.7-0.5-1.4
			l-3.4-8.5c-0.6-1.6-1.2-3-3-3c-1.8,0-2.3,1.4-2.9,3L-236.8,432.7L-236.8,432.7z M-228.6,430.1h-3.7l1.9-5.3h0L-228.6,430.1
			L-228.6,430.1z M-266.7,434.3c0,1.1,0.7,1.7,1.7,1.7c1,0,1.7-0.6,1.7-1.7v-4.1h0.1l4.3,5c0.4,0.5,0.8,0.8,1.7,0.8
			c1.3,0,1.8-1,1.8-1.5c0-0.5-0.2-0.9-0.7-1.4l-3-3.1c2.2-0.4,3.6-1.9,3.6-4c0-2.7-2-4.4-5.1-4.4h-4.2c-0.9,0-1.7,0.6-1.7,1.6V434.3
			L-266.7,434.3z M-263.2,424.6h2.3c1,0,1.8,0.6,1.8,1.6c0,0.9-0.6,1.6-1.8,1.6h-2.3V424.6L-263.2,424.6z M-280.2,432.7
			c-0.5,1.1-0.5,1.5-0.5,2c0,0.8,0.7,1.3,1.7,1.3c1.1,0,1.5-0.7,1.8-1.6l0.4-1.3h5.7l0.4,1.3c0.3,0.9,0.7,1.6,1.8,1.6
			c1,0,1.7-0.5,1.7-1.3c0-0.5-0.1-0.9-0.5-2l-3.4-8.5c-0.6-1.6-1.2-3-3-3c-1.7,0-2.3,1.4-2.9,3L-280.2,432.7L-280.2,432.7z
			 M-306.6,434.3c0,1.1,0.7,1.7,1.8,1.7c1,0,1.8-0.6,1.8-1.7v-3h2.7c3.3,0,5.2-2.1,5.2-4.9c0-3.2-2.6-4.9-5.3-4.9h-4.3
			c-0.9,0-1.8,0.6-1.8,1.6V434.3L-306.6,434.3z M-303.1,424.5h1.9c1.4,0,2.3,0.7,2.3,2c0,1-0.8,1.9-2.3,1.9h-1.9V424.5L-303.1,424.5
			z M-291.1,430h6.5v4.2c0,1.2,0.7,1.7,1.8,1.7c1,0,1.8-0.6,1.8-1.7v-11.1c0-1.1-0.7-1.7-1.8-1.7c-1,0-1.8,0.6-1.8,1.7v3.8h-6.5
			v-3.8c0-1.1-0.7-1.7-1.8-1.7c-1,0-1.7,0.6-1.7,1.7v11.1c0,1.2,0.7,1.7,1.7,1.7c1,0,1.8-0.6,1.8-1.7V430L-291.1,430z M-272.1,430.1
			h-3.7l1.9-5.3h0L-272.1,430.1L-272.1,430.1z M-179.8,423.2c0-1.1-0.7-1.7-1.8-1.7c-1,0-1.7,0.6-1.7,1.7v11.1
			c0,1.1,0.7,1.7,1.7,1.7c1,0,1.8-0.6,1.8-1.7V423.2L-179.8,423.2z M-152.7,434.3c0,1.1,0.7,1.7,1.7,1.7c1,0,1.7-0.6,1.7-1.7v-6.8h0
			l5.8,6.8c1.2,1.4,1.5,1.8,2.4,1.8c1,0,1.7-0.6,1.7-1.7v-11.1c0-1.1-0.7-1.7-1.7-1.7c-1,0-1.8,0.6-1.8,1.7v6.8h0l-5.8-6.8
			c-1.2-1.4-1.5-1.8-2.4-1.8c-1,0-1.7,0.6-1.7,1.7V434.3z"/>
	</g>
	<path id="XMLID_348_" class="st1" d="M-130.8,416.5h-0.6v1.3h0.6c0.4,0,0.6-0.1,0.8-0.2c0.2-0.1,0.2-0.3,0.2-0.5
		c0-0.2-0.1-0.4-0.2-0.5C-130.2,416.5-130.5,416.5-130.8,416.5L-130.8,416.5z M-130.7,416.1c0.5,0,0.8,0.1,1.1,0.2
		c0.2,0.2,0.4,0.4,0.4,0.7c0,0.3-0.1,0.5-0.2,0.6c-0.1,0.2-0.3,0.3-0.6,0.3l0.8,1.7h-0.6l-0.7-1.6h-0.8v1.6h-0.5v-3.6H-130.7
		L-130.7,416.1z M-128.1,418c0,0.4-0.1,0.7-0.2,1.1c-0.1,0.3-0.3,0.6-0.6,0.9c-0.3,0.3-0.6,0.5-0.9,0.6c-0.3,0.1-0.7,0.2-1,0.2
		c-0.4,0-0.7-0.1-1-0.2c-0.3-0.1-0.6-0.3-0.9-0.6c-0.3-0.3-0.5-0.6-0.6-0.9c-0.1-0.3-0.2-0.7-0.2-1.1c0-0.4,0.1-0.7,0.2-1.1
		c0.1-0.3,0.3-0.6,0.6-0.9c0.2-0.3,0.5-0.5,0.9-0.6c0.3-0.1,0.7-0.2,1-0.2c0.4,0,0.7,0.1,1,0.2c0.3,0.1,0.6,0.3,0.9,0.6
		c0.2,0.3,0.4,0.6,0.6,0.9C-128.2,417.2-128.1,417.6-128.1,418L-128.1,418z M-130.8,414.8c0.4,0,0.8,0.1,1.2,0.2
		c0.4,0.2,0.7,0.4,1,0.7c0.3,0.3,0.5,0.6,0.6,1c0.2,0.4,0.2,0.8,0.2,1.2c0,0.4-0.1,0.8-0.2,1.2c-0.2,0.4-0.4,0.7-0.6,1
		c-0.3,0.3-0.6,0.5-1,0.7c-0.4,0.2-0.8,0.2-1.2,0.2c-0.4,0-0.8-0.1-1.2-0.2c-0.4-0.2-0.7-0.4-1-0.7c-0.3-0.3-0.5-0.6-0.7-1
		c-0.2-0.4-0.2-0.8-0.2-1.2c0-0.4,0.1-0.8,0.2-1.2c0.2-0.4,0.4-0.7,0.7-1c0.3-0.3,0.6-0.5,0.9-0.7
		C-131.6,414.9-131.2,414.8-130.8,414.8z"/>
</g>
</svg>
