<?xml version="1.0" encoding="UTF-8"?> <svg xmlns="http://www.w3.org/2000/svg" width="162.95" height="36.04" viewBox="0 0 162.95 36.04"><defs><style>.cls-1{fill:#ffd900;}.cls-2{fill:##000000;}</style></defs><title>Qumimica-KUBO-negativo</title><g id="Capa_2" data-name="Capa 2"><g id="Capa_1-2" data-name="Capa 1"><path class="cls-1" d="M83.56,0H1.06C.32,0,0,.25,0,1V4.82c0,.74.32,1,1.06,1h82.5c.74,0,1.06-.29,1.06-1V1C84.62.25,84.3,0,83.56,0Z"></path><path class="cls-2" d="M0,12.76c0-.75.28-1.07,1-1.07H4.85c.75,0,1,.32,1,1.07v22c0,.74-.25,1.06-1,1.06H1c-.75,0-1-.32-1-1.06Zm7.55,8.68,4.07-8.68a1.88,1.88,0,0,1,1.67-1.07h4.07c.75,0,.78.47.5,1.07L12.51,23.53l6.24,11.2c.31.56.21,1.06-.54,1.06H13.32a1.66,1.66,0,0,1-1.48-1.06l-4.29-8.4Z"></path><path class="cls-2" d="M21.69,12.76c0-.75.28-1.07,1-1.07h3.83c.75,0,1,.32,1,1.07V29c0,1.38,1,2.05,2.34,2.26V36c-6-.25-8.18-3.08-8.18-6Zm9.88,18.49C32.89,31,34,30.37,34,29V12.76c0-.75.28-1.07,1-1.07H38.8c.75,0,1,.32,1,1.07V30c0,2.95-2.19,5.78-8.22,6Z"></path><path class="cls-2" d="M44.76,12.76c0-.75.28-1.07,1-1.07H50.6v24.1H45.78c-.74,0-1-.32-1-1.06ZM52.3,31.18h1.31c1.74,0,3.23-.63,3.23-2.26V27.78c0-1.34-1.49-2.05-3.23-2.05H52.3V21.4h.15c1.73,0,3.22-.67,3.22-2.34v-.92c0-1.63-1.49-1.84-3.22-1.84H52.3V11.69h.15c6.66,0,9,2.48,9,5.53v2A4.35,4.35,0,0,1,59,23.1c2.19.89,3.57,2.38,3.57,4.26V30c0,3.05-2.33,5.81-9,5.81H52.3Z"></path><path class="cls-2" d="M66.51,17.47c0-2.91,2.17-5.78,8.19-6v4.82c-1.35.17-2.34.88-2.34,2.23V29c0,1.38,1,2.05,2.34,2.26V36c-6-.25-8.19-3.08-8.19-6ZM76.4,31.25c1.31-.21,2.37-.88,2.37-2.26V18.5c0-1.35-1.06-2.06-2.37-2.23V11.45c6,.24,8.22,3.11,8.22,6V30c0,2.95-2.2,5.78-8.22,6Z"></path><path class="cls-2" d="M97.46,21.48l1.91,1.76c.12.1.13.19,0,.3l-.31.33a.2.2,0,0,1-.29,0l-2.53-2.34c-2.18-.05-2.88-1-2.88-2.09V13.68c0-1.15.74-2.09,3.09-2.09s3.11.94,3.11,2.09v5.78C99.59,20.44,99.06,21.27,97.46,21.48Zm-1-.77c1.52,0,2.09-.55,2.09-1.39v-5.5c0-.85-.57-1.39-2.09-1.39s-2.07.54-2.07,1.39v5.5C94.41,20.16,95,20.71,96.48,20.71Z"></path><path class="cls-2" d="M102.94,19.31c0,.83.56,1.37,2.06,1.37s2.11-.54,2.11-1.37v-7.4c0-.14.06-.21.2-.21h.6c.16,0,.2.07.2.21v7.55c0,1.15-.73,2.09-3.11,2.09s-3.08-.94-3.08-2.09V11.91c0-.14.06-.21.2-.21h.62c.14,0,.2.07.2.21Z"></path><path class="cls-2" d="M111.63,21.22c0,.15,0,.22-.2.22h-.6c-.14,0-.2-.07-.2-.22V11.91c0-.14.06-.21.2-.21h.6c.16,0,.2.07.2.21Z"></path><path class="cls-2" d="M122.05,21.22c0,.15-.06.22-.22.22h-.57c-.16,0-.22-.07-.22-.22V13.83a5.41,5.41,0,0,1-.28.89l-2.08,5a.29.29,0,0,1-.29.22h-.53c-.14,0-.21-.07-.27-.22l-2.16-5.14a5.37,5.37,0,0,1-.24-.74v7.37c0,.15-.06.22-.2.22h-.55c-.16,0-.21-.07-.21-.22V11.91c0-.14,0-.21.21-.21H115a.17.17,0,0,1,.18.11l2.71,6.33c.14.35.24.68.26.74a7.22,7.22,0,0,1,.27-.72l2.65-6.35c0-.08.1-.11.2-.11h.57c.16,0,.22.07.22.21Z"></path><path class="cls-2" d="M125.64,21.22c0,.15,0,.22-.2.22h-.6c-.14,0-.2-.07-.2-.22V11.91c0-.14.06-.21.2-.21h.6c.16,0,.2.07.2.21Z"></path><path class="cls-2" d="M134.12,19.46c0,1.15-.66,2.09-3,2.09s-3-.94-3-2.09V13.68c0-1.15.66-2.09,3-2.09s3,.94,3,2.09v.73c0,.15-.06.23-.2.23h-.57c-.16,0-.22-.08-.22-.23v-.58c0-.83-.5-1.37-2-1.37s-2,.54-2,1.37v5.48c0,.83.5,1.37,2,1.37s2-.54,2-1.37v-.76c0-.15.06-.22.22-.22h.57c.14,0,.2.07.2.22Z"></path><path class="cls-2" d="M139.19,11.91l2.86,9.31c0,.15,0,.22-.17.22h-.61c-.15,0-.22-.07-.26-.22l-.79-2.55h-3.28l-.77,2.55c0,.15-.1.22-.25.22h-.57c-.14,0-.2-.07-.16-.22L138,11.91a.26.26,0,0,1,.28-.21h.61A.24.24,0,0,1,139.19,11.91Zm-.23,2.6c-.14-.46-.33-1.58-.36-1.74a13.26,13.26,0,0,1-.36,1.71l-1.05,3.38H140Z"></path><path class="cls-2" d="M94.56,35.61c0,.14,0,.21-.2.21h-.6c-.14,0-.2-.07-.2-.21V26.3c0-.15.06-.22.2-.22h.6c.16,0,.2.07.2.22Z"></path><path class="cls-2" d="M103.34,35.61c0,.14,0,.21-.2.21h-.54a.2.2,0,0,1-.2-.1L98.6,29c-.31-.55-.47-.89-.49-.93v7.55c0,.14,0,.21-.2.21h-.54c-.16,0-.22-.07-.22-.21V26.3c0-.15.06-.22.22-.22h.54c.1,0,.15,0,.18.09L102,33c.11.2.43.86.43.86V26.3c0-.15,0-.22.2-.22h.54c.16,0,.2.07.2.22Z"></path><path class="cls-2" d="M106.12,35.82c-.13,0-.17-.07-.17-.21V26.3c0-.15.06-.22.18-.22H109c2.36,0,3.11,1,3.11,2.09v5.56c0,1.15-.75,2.09-3.11,2.09ZM107,27v8H109c1.53,0,2.09-.55,2.09-1.38V28.33c0-.83-.56-1.37-2.09-1.37Z"></path><path class="cls-2" d="M115.5,33.69c0,.83.56,1.37,2.06,1.37s2.11-.54,2.11-1.37V26.3c0-.15.06-.22.2-.22h.6c.16,0,.2.07.2.22v7.54c0,1.15-.73,2.09-3.11,2.09s-3.08-.94-3.08-2.09V26.3c0-.15.06-.22.21-.22h.61c.14,0,.2.07.2.22Z"></path><path class="cls-2" d="M126,26.83c-1.5,0-2,.53-2,1.36v.43a1.14,1.14,0,0,0,.83,1.11l2.7,1A2,2,0,0,1,129,32.61v1.23c0,1.15-.75,2.09-3.07,2.09s-3.06-.94-3.06-2.09v-.78c0-.16,0-.22.2-.22h.58c.15,0,.2.06.2.22v.66c0,.83.55,1.36,2.07,1.36s2.07-.53,2.07-1.36v-.89c0-.75-.63-1-1.19-1.26l-2.56-1A1.88,1.88,0,0,1,123,28.86v-.8c0-1.15.68-2.09,3-2.09s3,.94,3,2.09v.67c0,.14-.05.22-.21.22h-.59c-.14,0-.2-.08-.2-.22v-.54C128,27.36,127.49,26.83,126,26.83Z"></path><path class="cls-2" d="M136.34,26.08c.14,0,.21.06.21.22v.44c0,.16-.07.22-.21.22h-2.46v8.65c0,.14-.06.21-.2.21h-.62c-.16,0-.21-.07-.21-.21V27h-2.47c-.16,0-.21-.06-.21-.22V26.3c0-.16.05-.22.21-.22Z"></path><path class="cls-2" d="M139.13,31.85v3.76c0,.14,0,.21-.2.21h-.6c-.14,0-.2-.07-.2-.21V26.3c0-.15.06-.22.19-.22h2.83c2.38,0,3.11,1,3.11,2.09v1.61c0,.88-.44,1.66-1.78,1.94l1.87,3.89c.05.12,0,.21-.2.21h-.61c-.15,0-.18-.09-.25-.21l-1.78-3.76h-2.38Zm0-4.89v4h2c1.53,0,2.09-.54,2.09-1.39V28.33c0-.83-.56-1.37-2.09-1.37Z"></path><path class="cls-2" d="M147.58,35.61c0,.14,0,.21-.2.21h-.6c-.14,0-.2-.07-.2-.21V26.3c0-.15.06-.22.2-.22h.6c.16,0,.2.07.2.22Z"></path><path class="cls-2" d="M153.23,26.3l2.86,9.31c0,.14,0,.21-.17.21h-.62c-.14,0-.21-.07-.26-.21l-.78-2.55H151l-.78,2.55c0,.14-.1.21-.24.21h-.57c-.15,0-.2-.07-.16-.21l2.85-9.31a.25.25,0,0,1,.27-.22H153C153.11,26.08,153.18,26.15,153.23,26.3ZM153,28.89c-.15-.46-.33-1.58-.36-1.73,0,.1-.19,1.16-.36,1.7l-1.06,3.38H154Z"></path><path class="cls-2" d="M158.74,35h4c.14,0,.2,0,.2.2v.46c0,.15-.06.21-.2.21h-4.86c-.11,0-.17-.07-.17-.21V26.3c0-.15.06-.22.2-.22h.62c.14,0,.2.07.2.22Z"></path></g></g></svg> 